<svg xmlns="http://www.w3.org/2000/svg" width="846" height="648" viewBox="0 0 846 648">
<g>
<path d="M 432.00 622.32 C426.46,625.43 418.53,626.56 413.42,624.98 C409.09,623.64 400.76,618.02 371.17,596.46 C361.76,589.60 357.12,586.30 329.00,566.44 C321.58,561.19 313.92,555.39 311.98,553.54 C309.37,551.05 301.32,536.00 280.89,495.34 C265.72,465.18 250.26,434.56 246.54,427.29 C242.81,420.02 239.98,413.50 240.26,412.79 C240.69,411.68 265.78,396.98 292.50,382.19 C296.90,379.75 302.52,376.63 305.00,375.26 C332.65,359.86 335.11,358.68 336.52,360.10 C337.29,360.87 341.81,368.70 346.56,377.50 C365.72,412.96 394.00,465.98 397.86,473.70 C404.70,487.35 411.29,492.93 420.62,492.98 C427.24,493.01 437.00,487.70 437.00,484.06 C437.00,483.56 437.64,482.50 438.43,481.71 C439.21,480.93 440.93,478.08 442.25,475.39 C443.56,472.70 446.24,467.58 448.20,464.00 C457.44,447.18 465.26,432.56 469.87,423.50 C471.82,419.65 473.68,416.27 473.98,416.00 C474.29,415.73 475.08,414.26 475.75,412.75 C476.41,411.24 477.36,410.00 477.86,410.00 C478.71,410.00 482.40,417.71 484.07,423.00 C484.50,424.38 486.42,429.77 488.34,435.00 C496.19,456.44 504.45,479.28 508.95,492.00 C511.58,499.42 514.92,508.88 516.38,513.00 C517.84,517.12 519.47,521.28 520.01,522.24 C520.56,523.19 521.00,524.50 521.00,525.14 C521.00,525.78 522.60,530.85 524.56,536.40 C524.82,537.14 525.07,537.84 525.30,538.50 C529.06,549.15 529.88,551.47 529.07,552.80 C528.79,553.25 528.32,553.59 527.71,554.10 C522.31,558.64 436.52,619.79 432.00,622.32 Z" fill="rgb(26,103,174)"/>
<path d="M 396.96 471.94 C390.79,459.96 364.62,410.93 346.56,377.50 C341.81,368.70 337.29,360.87 336.52,360.10 C335.11,358.68 332.65,359.86 305.00,375.26 C302.52,376.63 296.90,379.75 292.50,382.19 C265.78,396.98 240.69,411.68 240.26,412.79 C239.98,413.50 242.81,420.02 246.54,427.29 C248.88,431.86 255.87,445.67 264.51,462.80 C256.07,446.09 249.23,432.60 246.84,428.00 C228.56,392.77 219.39,374.89 203.25,343.00 C193.65,324.02 178.90,295.00 170.49,278.50 C133.83,206.59 113.00,164.71 113.00,162.92 C113.00,161.87 113.34,161.00 113.75,161.00 C114.82,161.00 150.25,173.19 159.64,176.80 C163.96,178.45 175.15,182.54 184.50,185.87 C193.85,189.21 204.65,193.10 208.50,194.52 C212.35,195.94 222.48,199.58 231.00,202.59 C239.52,205.61 248.75,208.89 251.50,209.87 C255.43,211.28 257.10,212.61 259.31,216.08 C262.36,220.88 275.18,244.26 289.95,272.00 C306.44,302.96 318.80,325.98 345.77,376.00 C373.27,427.01 391.55,461.27 396.96,471.94 ZM 407.81 488.00 C404.44,484.98 401.32,480.49 398.16,474.28 C401.42,480.54 404.51,485.01 407.81,488.00 Z" fill="rgb(45,167,162)"/>
<path d="M 423.81 457.25 C422.69,458.21 420.78,459.00 419.56,459.00 C415.99,459.00 413.28,455.33 404.78,439.00 C402.34,434.33 396.52,423.52 391.85,415.00 C387.17,406.48 381.40,395.67 379.02,391.00 C376.65,386.33 372.52,378.56 369.85,373.75 C367.18,368.93 365.00,364.82 365.00,364.61 C365.00,364.40 365.82,364.02 366.83,363.76 C367.89,363.48 370.62,359.54 373.31,354.39 C378.67,344.18 383.45,335.38 391.25,321.37 C400.29,305.14 402.04,301.93 407.27,292.00 C410.02,286.77 413.82,279.83 415.71,276.58 C417.60,273.32 418.94,269.86 418.68,268.90 C418.39,267.77 418.68,267.32 419.51,267.64 C421.24,268.31 424.65,264.50 425.32,261.15 C425.62,259.66 427.54,255.52 429.58,251.97 C431.63,248.41 434.29,243.70 435.50,241.50 C436.71,239.30 440.25,232.96 443.35,227.41 C446.46,221.87 449.00,217.01 449.00,216.62 C449.00,216.22 450.58,213.44 452.50,210.43 C454.42,207.42 456.00,204.74 456.00,204.46 C456.00,204.19 457.05,202.28 458.33,200.23 C459.61,198.18 462.82,192.45 465.46,187.50 C472.84,173.69 481.70,157.59 488.30,146.00 C491.58,140.23 496.72,130.79 499.73,125.03 C502.73,119.27 506.04,113.35 507.09,111.87 C508.14,110.40 509.00,108.91 509.00,108.58 C509.00,108.24 510.05,106.28 511.33,104.23 C512.62,102.18 516.29,95.55 519.49,89.50 C522.69,83.45 526.26,76.93 527.43,75.00 C528.59,73.07 530.15,70.30 530.90,68.83 C531.64,67.37 533.20,65.91 534.37,65.60 C538.44,64.51 744.29,64.95 748.28,66.06 C757.08,68.50 763.00,77.08 763.00,87.37 C763.00,93.37 762.53,94.73 756.14,107.16 C752.37,114.50 744.43,130.06 738.49,141.74 C729.38,159.66 727.51,162.72 726.51,161.34 C725.42,159.85 724.20,160.09 713.40,163.87 C706.86,166.17 698.25,169.33 694.27,170.90 C690.29,172.47 687.28,173.36 687.58,172.88 C687.88,172.38 664.63,172.00 633.81,172.01 L 579.50 172.01 L 577.37 175.26 C575.04,178.79 563.56,199.84 541.50,241.00 C533.68,255.57 520.54,279.88 512.29,295.00 C504.04,310.12 492.89,330.83 487.51,341.00 C482.13,351.17 474.23,365.80 469.96,373.50 C465.69,381.20 458.41,394.70 453.77,403.50 C436.30,436.69 425.78,455.56 423.81,457.25 ZM 156.18 175.51 C143.62,170.92 114.72,161.00 113.75,161.00 C113.34,161.00 113.00,161.87 113.00,162.92 C113.00,163.76 117.54,173.34 126.12,190.63 C118.77,175.98 113.36,165.12 112.27,162.79 L 110.06 158.07 L 112.28 158.91 C116.55,160.52 121.65,162.00 122.92,162.00 C123.62,162.00 125.62,162.62 127.35,163.38 C133.05,165.89 145.42,169.80 150.00,170.54 C153.47,171.11 154.04,171.44 152.50,171.99 C150.75,172.61 151.00,172.95 154.50,174.73 C154.94,174.95 155.52,175.21 156.18,175.51 ZM 529.23 552.47 C529.74,551.07 528.77,548.33 525.30,538.50 C525.07,537.84 524.82,537.14 524.56,536.40 C524.21,535.39 523.86,534.40 523.54,533.44 C525.86,539.70 529.10,547.22 530.14,548.15 C531.81,549.65 531.84,549.89 529.23,552.47 ZM 481.82 417.07 C480.19,413.31 478.42,410.00 477.86,410.00 C477.36,410.00 476.41,411.24 475.75,412.75 C475.47,413.39 475.17,414.02 474.89,414.55 C475.28,413.73 475.75,412.66 476.19,411.54 C478.24,406.33 479.67,406.03 480.25,410.70 C480.44,412.17 481.06,414.67 481.82,417.07 ZM 213.40 196.30 C211.35,195.57 209.65,194.95 208.50,194.52 C204.65,193.10 193.85,189.21 184.50,185.87 C179.41,184.06 173.78,182.02 169.01,180.27 C180.65,184.28 209.55,194.69 213.00,196.15 C213.10,196.19 213.23,196.24 213.40,196.30 ZM 432.00 622.32 C434.70,620.81 466.36,598.41 492.59,579.63 C466.74,598.28 435.91,620.13 432.00,622.32 ZM 488.37 435.00 C489.72,438.71 492.30,445.81 494.90,452.97 C492.74,447.04 490.52,440.96 488.34,435.00 C487.41,432.48 486.49,429.92 485.73,427.79 C486.62,430.20 487.55,432.74 488.37,435.00 ZM 498.00 461.50 C500.19,467.53 503.02,475.39 505.46,482.19 C502.93,475.14 499.89,466.72 496.66,457.82 Z" fill="rgb(169,198,75)"/>
<path d="M 419.64 267.68 C419.60,267.67 419.55,267.66 419.51,267.64 C418.68,267.32 418.39,267.77 418.68,268.90 C418.94,269.86 417.60,273.32 415.71,276.58 C413.82,279.83 410.02,286.77 407.27,292.00 C402.04,301.93 400.29,305.14 391.25,321.37 C383.45,335.38 378.67,344.18 373.31,354.39 C370.62,359.54 367.89,363.48 366.83,363.76 C365.94,363.99 365.20,364.31 365.04,364.53 C360.54,355.89 355.34,345.78 352.87,340.78 C351.32,337.63 347.50,330.66 344.39,325.28 C341.29,319.90 335.13,308.52 330.70,300.00 C326.28,291.48 321.61,282.82 320.33,280.77 C319.05,278.72 318.00,276.83 318.00,276.56 C318.00,276.30 316.61,273.74 314.92,270.86 C313.22,267.99 309.08,260.21 305.72,253.57 C302.35,246.93 298.18,239.02 296.44,236.00 C294.70,232.98 291.13,226.45 288.51,221.50 C285.89,216.55 282.69,210.68 281.40,208.46 C276.93,200.76 274.09,195.45 267.91,183.26 L 261.71 171.02 L 263.76 165.76 C267.09,157.22 284.39,116.83 297.38,87.27 C304.84,70.29 306.99,66.00 307.99,66.00 C308.27,66.01 310.52,69.94 312.99,74.75 C315.45,79.56 318.88,85.97 320.60,89.00 C322.32,92.03 327.00,100.57 331.01,108.00 C335.02,115.43 340.20,124.88 342.53,129.00 C344.86,133.12 348.90,140.55 351.50,145.50 C354.11,150.45 359.72,160.80 363.98,168.50 C368.24,176.20 373.06,184.98 374.71,188.00 C378.15,194.34 390.35,216.41 407.01,246.44 C413.17,257.54 418.71,266.84 419.64,267.68 ZM 481.82 417.07 C481.06,414.67 480.44,412.17 480.25,410.70 C479.85,407.46 479.03,406.61 477.89,408.15 C478.08,407.86 478.26,407.63 478.40,407.50 C479.01,406.95 480.95,403.58 482.73,400.00 C486.25,392.90 495.19,376.00 498.98,369.25 C500.29,366.91 502.01,365.00 502.79,365.00 C503.58,365.00 510.58,368.32 518.36,372.38 C535.82,381.49 555.88,391.83 579.75,404.03 C597.06,412.88 598.00,413.51 598.00,416.25 C598.00,418.04 589.26,436.41 575.13,464.32 C562.55,489.17 547.71,518.55 542.15,529.61 C537.90,538.07 533.90,545.34 531.27,549.49 C531.16,549.09 530.76,548.71 530.14,548.15 C529.10,547.22 525.86,539.70 523.54,533.44 C522.07,529.15 521.00,525.66 521.00,525.14 C521.00,524.50 520.56,523.19 520.01,522.24 C519.47,521.28 517.84,517.12 516.38,513.00 C514.92,508.88 511.58,499.42 508.95,492.00 C507.96,489.19 506.78,485.87 505.46,482.19 C503.02,475.39 500.19,467.53 498.00,461.50 L 496.66 457.82 C496.08,456.22 495.49,454.60 494.90,452.97 L 494.88 452.93 C492.29,445.79 489.71,438.71 488.37,435.00 C487.55,432.74 486.62,430.20 485.73,427.79 C484.91,425.50 484.29,423.71 484.07,423.00 C483.49,421.17 482.67,419.06 481.82,417.07 ZM 476.93 409.83 C476.69,410.32 476.45,410.89 476.19,411.54 C475.75,412.66 475.28,413.73 474.89,414.55 C474.81,414.70 474.73,414.84 474.66,414.97 C475.05,414.21 475.53,413.12 475.96,412.00 C476.25,411.26 476.58,410.51 476.93,409.83 ZM 370.21 374.39 C371.02,375.87 371.95,377.58 372.91,379.37 C372.58,378.83 371.59,377.00 370.21,374.39 ZM 432.00 622.32 C435.28,620.49 457.47,604.84 479.79,588.84 C457.47,604.83 435.29,620.48 432.00,622.32 ZM 388.57 408.99 C389.68,411.04 390.79,413.08 391.85,415.00 C396.36,423.23 401.93,433.57 404.51,438.48 C401.93,433.57 396.36,423.23 391.85,415.00 C390.80,413.10 389.69,411.06 388.57,408.99 ZM 423.03 265.65 C424.09,264.35 425.02,262.66 425.32,261.15 C425.01,262.72 424.09,264.39 423.03,265.65 Z" fill="rgb(242,116,43)"/>
<path d="M 581.10 452.46 C591.68,431.28 598.00,417.77 598.00,416.25 C598.00,413.51 597.06,412.88 579.75,404.03 C555.88,391.83 535.82,381.49 518.36,372.38 C510.58,368.32 503.58,365.00 502.79,365.00 C502.01,365.00 500.29,366.91 498.98,369.25 C496.35,373.92 491.27,383.45 487.22,391.23 C497.41,371.13 501.03,364.14 503.86,359.00 C508.10,351.32 517.67,333.35 526.50,316.50 C529.67,310.45 532.59,305.05 532.99,304.50 C533.39,303.95 536.09,299.00 539.00,293.50 C541.91,288.00 545.42,281.48 546.79,279.00 C548.16,276.52 550.94,271.35 552.97,267.50 C555.00,263.65 557.91,258.25 559.43,255.50 C561.91,251.02 565.76,243.77 576.71,223.00 C580.97,214.90 585.58,210.67 592.85,208.16 C621.16,198.40 631.84,194.62 640.00,191.48 C645.22,189.47 652.20,186.95 655.50,185.88 C658.80,184.82 662.85,183.34 664.50,182.61 C666.15,181.88 669.75,180.69 672.50,179.97 C679.44,178.15 685.28,175.58 686.89,173.64 C687.26,173.18 687.16,172.86 685.49,172.62 C686.90,172.70 687.63,172.79 687.58,172.88 C687.28,173.36 690.29,172.47 694.27,170.90 C698.25,169.33 706.86,166.17 713.40,163.87 C724.20,160.09 725.42,159.85 726.51,161.34 C727.51,162.72 729.38,159.66 738.49,141.74 C743.52,131.83 750.00,119.14 754.15,111.03 C744.40,130.13 717.59,183.06 682.76,252.00 C669.56,278.12 653.69,309.40 647.50,321.50 C630.52,354.69 610.82,393.54 581.10,452.46 ZM 307.53 66.24 C306.34,67.34 303.87,72.51 297.38,87.27 C284.39,116.83 267.09,157.22 263.76,165.76 L 261.71 171.02 L 267.91 183.26 C269.90,187.18 271.54,190.39 273.00,193.20 C272.09,191.50 271.09,189.63 269.98,187.55 C267.34,182.63 264.00,177.12 262.55,175.30 L 259.91 172.00 L 205.21 172.03 C157.41,172.06 150.74,172.25 152.40,173.50 C152.66,173.70 152.94,173.89 153.28,174.09 C150.97,172.86 150.98,172.53 152.50,171.99 C154.04,171.44 153.47,171.11 150.00,170.54 C145.42,169.80 133.05,165.89 127.35,163.38 C125.62,162.62 123.62,162.00 122.92,162.00 C121.65,162.00 116.55,160.52 112.28,158.91 L 110.06 158.07 L 112.27 162.79 C113.36,165.12 118.77,175.98 126.12,190.63 C127.38,193.18 128.73,195.89 130.17,198.78 C109.49,157.79 87.34,113.82 79.68,98.50 C73.43,85.99 79.38,70.76 92.14,66.64 C96.73,65.16 107.40,65.00 200.86,65.01 C257.86,65.02 305.41,65.27 306.51,65.57 C306.80,65.65 307.14,65.87 307.53,66.24 ZM 547.49 519.01 C553.65,506.80 562.69,488.92 571.24,472.01 L 568.98 476.50 C559.79,494.74 552.83,508.53 547.49,519.01 ZM 412.49 491.14 C416.13,492.79 420.14,493.28 424.07,492.59 C422.88,492.85 421.71,492.98 420.62,492.98 C416.99,492.96 413.78,492.10 410.80,490.26 C411.35,490.58 411.91,490.87 412.49,491.14 ZM 432.55 489.16 C435.15,487.43 437.00,485.40 437.00,484.06 C437.00,485.64 435.17,487.53 432.55,489.16 ZM 278.29 203.01 C279.28,204.78 280.29,206.54 281.40,208.46 C281.57,208.75 281.78,209.12 282.01,209.53 C281.56,208.93 280.72,207.49 278.29,203.01 ZM 293.85 231.37 C294.87,233.23 295.79,234.86 296.44,236.00 C296.86,236.73 297.42,237.74 298.07,238.95 C297.63,238.14 297.26,237.48 296.98,237.00 C296.33,235.88 295.19,233.83 293.85,231.37 ZM 166.37 270.41 C167.72,273.06 169.10,275.76 170.49,278.50 C171.97,281.40 173.64,284.68 175.45,288.23 C173.68,284.76 172.08,281.63 170.74,279.00 C169.78,277.13 168.29,274.20 166.37,270.41 ZM 531.29 549.55 C531.28,549.53 531.28,549.51 531.27,549.49 C531.88,548.53 532.57,547.39 533.31,546.12 C532.53,547.50 531.87,548.62 531.29,549.55 ZM 480.79 403.71 C479.71,405.66 478.79,407.15 478.40,407.50 C478.26,407.63 478.08,407.86 477.89,408.15 C477.86,408.18 477.83,408.21 477.81,408.25 C478.03,407.90 478.24,407.64 478.40,407.48 C478.77,407.14 479.69,405.67 480.79,403.71 ZM 156.18 175.51 C155.71,175.30 155.28,175.10 154.91,174.93 C155.42,175.16 156.04,175.42 156.79,175.73 C156.59,175.65 156.39,175.58 156.18,175.51 ZM 529.23 552.47 C529.26,552.44 529.29,552.41 529.32,552.38 C529.22,552.50 529.22,552.49 529.23,552.47 ZM 476.93 409.83 C476.58,410.51 476.25,411.26 475.96,412.00 C476.25,411.24 476.60,410.47 476.95,409.77 L 476.93 409.83 Z" fill="rgb(245,149,52)"/>
<path d="M 0.00 324.00 L 0.00 0.00 L 423.00 0.00 L 846.00 0.00 L 846.00 324.00 L 846.00 648.00 L 423.00 648.00 L 0.00 648.00 L 0.00 324.00 ZM 432.00 622.32 C436.55,619.78 522.66,558.39 527.52,554.23 C531.30,551.00 533.69,546.52 568.98,476.50 C605.65,403.74 628.31,359.00 647.50,321.50 C653.69,309.40 669.56,278.12 682.76,252.00 C720.78,176.74 749.24,120.57 756.40,106.65 C762.52,94.73 763.00,93.33 763.00,87.36 C763.00,77.08 757.07,68.50 748.28,66.06 C744.29,64.95 538.44,64.51 534.37,65.60 C533.20,65.91 531.64,67.37 530.90,68.83 C530.15,70.30 528.59,73.07 527.43,75.00 C526.26,76.93 522.69,83.45 519.49,89.50 C516.29,95.55 512.62,102.18 511.33,104.23 C510.05,106.28 509.00,108.24 509.00,108.58 C509.00,108.91 508.14,110.40 507.09,111.87 C506.04,113.35 502.73,119.27 499.73,125.03 C496.72,130.79 491.58,140.23 488.30,146.00 C481.70,157.59 472.84,173.69 465.46,187.50 C462.82,192.45 459.61,198.18 458.33,200.23 C457.05,202.28 456.00,204.19 456.00,204.46 C456.00,204.74 454.42,207.42 452.50,210.43 C450.58,213.44 449.00,216.22 449.00,216.62 C449.00,217.01 446.46,221.87 443.35,227.41 C440.25,232.96 436.71,239.30 435.50,241.50 C434.29,243.70 431.63,248.41 429.58,251.97 C427.54,255.52 425.62,259.66 425.32,261.15 C424.69,264.30 421.32,268.27 419.73,267.74 C419.12,267.54 413.40,257.95 407.01,246.44 C390.35,216.41 378.15,194.34 374.71,188.00 C373.06,184.98 368.24,176.20 363.98,168.50 C359.72,160.80 354.11,150.45 351.50,145.50 C348.90,140.55 344.86,133.12 342.53,129.00 C340.20,124.88 335.02,115.43 331.01,108.00 C327.00,100.57 322.32,92.03 320.60,89.00 C318.88,85.97 315.46,79.59 313.00,74.80 C310.14,69.25 307.80,65.91 306.51,65.57 C305.41,65.27 257.86,65.02 200.86,65.01 C107.40,65.00 96.73,65.16 92.14,66.64 C79.38,70.76 73.43,85.99 79.68,98.50 C94.21,127.56 160.90,259.75 170.74,279.00 C177.91,293.02 192.09,320.92 202.24,341.00 C219.28,374.68 228.25,392.18 246.84,428.00 C250.69,435.42 266.12,465.95 281.14,495.83 C301.41,536.19 309.35,551.03 311.97,553.53 C313.91,555.39 321.58,561.19 329.00,566.44 C357.12,586.30 361.76,589.60 371.17,596.46 C400.76,618.02 409.09,623.64 413.42,624.98 C418.53,626.56 426.46,625.43 432.00,622.32 ZM 412.49 491.14 C406.99,488.64 402.78,483.52 397.37,472.75 C392.53,463.11 374.01,428.38 345.77,376.00 C318.80,325.98 306.44,302.96 289.95,272.00 C275.18,244.26 262.36,220.88 259.31,216.08 C257.10,212.61 255.43,211.28 251.50,209.87 C248.75,208.89 239.52,205.61 231.00,202.59 C222.48,199.58 212.35,195.94 208.50,194.52 C204.65,193.10 193.85,189.20 184.50,185.86 C157.08,176.05 154.40,175.01 152.40,173.50 C150.74,172.25 157.41,172.06 205.21,172.03 L 259.91 172.00 L 262.55 175.30 C264.00,177.12 267.34,182.63 269.98,187.55 C279.29,204.94 281.24,208.51 281.99,209.50 C282.40,210.05 285.36,215.45 288.55,221.50 C291.75,227.55 295.54,234.52 296.98,237.00 C298.42,239.48 302.36,246.93 305.72,253.57 C309.08,260.21 313.22,267.99 314.92,270.86 C316.61,273.74 318.00,276.30 318.00,276.56 C318.00,276.83 319.05,278.72 320.33,280.77 C321.61,282.82 326.28,291.48 330.70,300.00 C335.13,308.52 341.29,319.90 344.39,325.28 C347.50,330.66 351.32,337.63 352.87,340.78 C357.59,350.32 372.20,378.43 373.00,379.50 C373.41,380.05 375.90,384.77 378.54,390.00 C381.18,395.23 387.17,406.48 391.85,415.00 C396.52,423.52 402.34,434.33 404.78,439.00 C413.28,455.33 415.99,459.00 419.56,459.00 C420.78,459.00 422.69,458.21 423.81,457.25 C425.78,455.56 436.30,436.69 453.77,403.50 C458.41,394.70 465.69,381.20 469.96,373.50 C474.23,365.80 482.13,351.17 487.51,341.00 C492.89,330.83 504.04,310.12 512.29,295.00 C520.54,279.88 533.68,255.57 541.50,241.00 C563.56,199.84 575.04,178.79 577.37,175.26 L 579.50 172.01 L 633.87 172.01 C684.11,172.00 688.14,172.12 686.89,173.64 C685.28,175.58 679.44,178.15 672.50,179.97 C669.75,180.69 666.15,181.88 664.50,182.61 C662.85,183.34 658.80,184.82 655.50,185.88 C652.20,186.95 645.22,189.47 640.00,191.48 C631.84,194.62 621.16,198.40 592.85,208.16 C585.58,210.67 580.97,214.90 576.71,223.00 C565.76,243.77 561.91,251.02 559.43,255.50 C557.91,258.25 555.00,263.65 552.97,267.50 C550.94,271.35 548.16,276.52 546.79,279.00 C545.42,281.48 541.91,288.00 539.00,293.50 C536.09,299.00 533.39,303.95 532.99,304.50 C532.59,305.05 529.67,310.45 526.50,316.50 C517.67,333.35 508.10,351.32 503.86,359.00 C500.67,364.78 496.48,372.92 483.04,399.48 C481.09,403.32 479.01,406.92 478.40,407.48 C477.80,408.04 476.70,410.08 475.96,412.00 C475.22,413.92 474.35,415.73 474.02,416.00 C473.69,416.27 471.82,419.65 469.87,423.50 C465.26,432.56 457.44,447.18 448.20,464.00 C446.24,467.58 443.56,472.70 442.25,475.39 C440.93,478.08 439.21,480.93 438.43,481.71 C437.64,482.50 437.00,483.56 437.00,484.06 C437.00,485.94 433.36,489.17 429.12,491.05 C423.67,493.48 417.71,493.51 412.49,491.14 Z" fill="rgb(254,254,254)"/>
</g>
</svg>